<svg width="17" height="16" viewBox="0 0 17 16" fill="none" xmlns="http://www.w3.org/2000/svg">
<path d="M7.46705 1.52174C7.82929 0.762615 8.90985 0.762616 9.27208 1.52174L10.8344 4.79584C10.9802 5.10134 11.2706 5.31236 11.6062 5.3566L15.2029 5.83071C16.0368 5.94063 16.3707 6.9683 15.7607 7.54739L13.1296 10.045C12.8841 10.2781 12.7731 10.6195 12.8348 10.9523L13.4953 14.5194C13.6484 15.3465 12.7742 15.9816 12.035 15.5804L8.84658 13.8499C8.54907 13.6885 8.19007 13.6885 7.89255 13.8499L4.70414 15.5804C3.96489 15.9816 3.0907 15.3465 3.24384 14.5194L3.90436 10.9523C3.966 10.6195 3.85506 10.2781 3.60955 10.045L0.978483 7.54739C0.368451 6.9683 0.702364 5.94063 1.53627 5.8307L5.1329 5.3566C5.46851 5.31236 5.75895 5.10134 5.90473 4.79584L7.46705 1.52174Z" fill="#20262D"/>
</svg>
